<svg width="516" height="193" viewBox="0 0 516 193" fill="none" xmlns="http://www.w3.org/2000/svg">
<path opacity="0.62" d="M85.8252 80.8489V43.1509C85.8252 20.3898 67.3319 1.89648 44.5708 1.89648H6.87282C4.91679 1.89648 3.31641 3.49687 3.31641 5.4529V43.1509C3.31641 65.9119 21.8098 84.2275 44.5708 84.2275H82.2688C84.2248 84.2275 85.8252 82.6271 85.8252 80.8489Z" fill="#163535"/>
<path d="M192.517 190.209H115.343C113.387 190.209 111.786 188.608 111.786 186.652V148.065C111.786 124.771 130.635 105.922 153.93 105.922C177.224 105.922 196.073 124.771 196.073 148.065V186.652C196.073 188.608 194.473 190.209 192.517 190.209Z" fill="#D5A188"/>
<path d="M44.5703 192.343C20.2089 192.343 0.292969 172.427 0.292969 148.065C0.292969 123.704 20.2089 103.788 44.5703 103.788C68.9318 103.788 88.8477 123.704 88.8477 148.065C88.8477 172.427 68.9318 192.343 44.5703 192.343Z" fill="#CF7651"/>
<path d="M44.5703 192.343C20.2089 192.343 0.292969 172.427 0.292969 148.065C0.292969 123.704 20.2089 103.788 44.5703 103.788C68.9318 103.788 88.8477 123.704 88.8477 148.065C88.8477 172.427 68.9318 192.343 44.5703 192.343Z" fill="#CF7651"/>
<path d="M144.507 17.9002H115.878C115.522 17.9002 115.167 17.7224 114.633 17.1889C114.277 16.8333 114.1 16.2998 114.1 15.9441V4.20798C114.1 3.85234 114.277 3.4967 114.811 2.96324C115.344 2.42977 115.7 2.25195 116.056 2.25195H192.163C192.519 2.25195 192.874 2.42977 193.408 2.96324C193.941 3.4967 194.119 3.85234 194.119 4.20798V15.9441C194.119 16.2998 193.941 16.6554 193.408 17.1889C192.874 17.7224 192.519 17.9002 192.163 17.9002H163V82.8047C163 83.3382 162.822 83.6938 162.467 84.0495C162.111 84.4051 161.756 84.4051 161.222 84.4051H146.285C145.752 84.4051 145.396 84.2273 145.04 84.0495C144.685 83.6938 144.507 83.3382 144.507 82.8047V17.9002Z" fill="#163535"/>
<path d="M253.689 82.6273L247.643 70.1799H208.879L203.188 82.6273C202.655 83.872 201.766 84.4055 200.343 84.4055H184.517C183.806 84.4055 183.45 84.0499 183.45 83.5164C183.45 82.9829 183.628 82.4495 183.984 81.916L221.504 2.43018H235.374L272.894 81.916C273.25 82.6273 273.427 83.1608 273.427 83.5164C273.427 84.2277 273.072 84.4055 272.361 84.4055H256.535C255.112 84.4055 254.223 83.872 253.689 82.6273ZM222.571 40.4838L215.28 55.5986H241.598L234.485 40.4838C233.951 39.0612 233.062 37.1052 231.995 34.2601C231.817 33.5488 231.462 32.8375 231.284 32.1262C231.106 31.4149 230.751 30.7037 230.573 29.8146C230.395 29.1033 230.217 28.5698 230.039 28.2142L229.328 25.9025H228.617C226.305 31.5928 224.349 36.5717 222.571 40.4838Z" fill="#163535"/>
<path d="M282.674 56.8432L295.477 56.6654C297.078 56.6654 297.967 57.3767 298.145 58.7992C299.745 66.4455 306.324 70.1797 318.061 70.1797C324.284 70.1797 328.908 69.1128 331.931 66.979C335.131 64.8451 336.554 62.3556 336.554 59.1549C336.554 54.3537 332.998 51.6864 325.885 51.1529L304.902 49.3747C296.722 48.6634 290.498 46.5296 286.231 42.7954C281.963 39.0611 279.829 34.26 279.829 28.0362C279.829 20.5678 283.03 14.1662 289.254 8.65379C295.655 3.31917 304.368 0.651855 315.571 0.651855C327.307 0.651855 336.02 2.96352 341.889 7.58686C347.757 12.2102 350.78 18.0783 350.78 25.1911C350.78 26.7915 349.89 27.5028 348.29 27.5028H334.954C333.531 27.5028 332.82 26.7915 332.464 25.3689C331.397 19.1452 325.707 15.9444 315.393 15.9444C309.881 15.9444 305.613 17.0114 302.59 18.9674C299.389 21.1012 297.967 23.5907 297.967 26.7915C297.967 30.8814 301.168 33.193 307.747 33.7265L328.552 35.5047C337.443 36.3938 344.022 38.7055 348.468 42.9732C352.736 47.0631 354.869 52.2199 354.869 58.2658C354.869 65.5564 351.669 71.7801 345.445 77.2926C339.221 82.6272 330.152 85.2945 318.061 85.2945C306.147 85.2945 296.9 82.805 290.143 78.0039C283.386 73.0249 280.007 66.979 280.007 59.8661V58.7992C280.007 58.0879 280.363 57.5545 280.896 57.1988C281.429 57.021 281.963 56.8432 282.674 56.8432Z" fill="#163535"/>
<path d="M388.654 17.9002H360.025C359.67 17.9002 359.314 17.7224 358.781 17.1889C358.247 16.6554 358.069 16.2998 358.069 15.9441V4.20798C358.069 3.85234 358.247 3.4967 358.781 2.96324C359.314 2.42977 359.67 2.25195 360.025 2.25195H435.421C435.777 2.25195 436.133 2.42977 436.666 2.96324C437.2 3.4967 437.377 3.85234 437.377 4.20798V15.9441C437.377 16.2998 437.2 16.6554 436.666 17.1889C436.133 17.7224 435.777 17.9002 435.421 17.9002H407.148V82.8047C407.148 83.3382 406.97 83.6938 406.614 84.0495C406.259 84.4051 405.903 84.4051 405.37 84.4051H390.433C389.899 84.4051 389.544 84.2273 389.188 84.0495C388.832 83.6938 388.654 83.3382 388.654 82.8047V17.9002Z" fill="#163535"/>
<path d="M509.04 50.2635L465.296 50.4414V69.1125H513.485C513.841 69.1125 514.197 69.2904 514.73 69.8238C515.264 70.3573 515.441 70.7129 515.441 71.0686V82.8047C515.441 83.3382 515.264 83.6938 514.908 84.0495C514.552 84.4051 514.197 84.5829 513.663 84.5829H448.403C447.87 84.5829 447.514 84.4051 447.336 84.2273C446.98 83.8716 446.98 83.516 446.98 82.9825V4.03016C446.98 3.4967 447.158 3.14106 447.336 2.78542C447.692 2.42977 448.047 2.25195 448.403 2.25195H512.774C513.13 2.25195 513.485 2.42977 514.019 2.96324C514.552 3.4967 514.73 3.85234 514.73 4.20798V15.9441C514.73 16.4776 514.552 16.8333 514.197 17.1889C513.663 17.7224 513.308 17.9002 512.952 17.9002H465.652V34.6153H508.862C509.218 34.6153 509.573 34.7931 510.107 35.3266C510.64 35.8601 510.818 36.2157 510.818 36.5713V48.3075C510.818 48.841 510.64 49.1966 510.285 49.5523C509.751 49.9079 509.396 50.2635 509.04 50.2635Z" fill="#163535"/>
<path d="M253.154 109.478V174.56H293.697C294.053 174.56 294.409 174.738 294.942 175.272C295.476 175.805 295.653 176.161 295.653 176.516V188.252C295.653 188.786 295.476 189.142 295.12 189.497C294.764 189.853 294.409 190.031 293.875 190.031H236.439C235.906 190.031 235.55 189.853 235.372 189.675C235.017 189.142 235.017 188.786 235.017 188.43V109.478C235.017 109.122 235.194 108.767 235.372 108.233C235.728 107.878 236.084 107.7 236.439 107.7H251.732C252.265 107.7 252.621 107.878 252.799 108.233C252.976 108.767 253.154 109.122 253.154 109.478Z" fill="#163535"/>
<path d="M329.44 109.478V188.252C329.44 188.608 329.263 188.964 329.085 189.497C328.907 189.853 328.551 189.853 328.018 189.853H312.725C312.192 189.853 311.836 189.675 311.658 189.497C311.303 188.964 311.303 188.608 311.303 188.252V109.478C311.303 109.122 311.481 108.767 311.658 108.233C312.014 107.878 312.37 107.7 312.725 107.7H328.018C328.551 107.7 328.907 107.878 329.085 108.233C329.263 108.767 329.44 109.122 329.44 109.478Z" fill="#163535"/>
<path d="M430.619 110.367L395.055 144.864L432.397 187.719C432.931 188.252 433.109 188.608 433.109 188.964C433.109 189.675 432.753 189.853 431.864 189.853H412.126C410.881 189.853 409.814 189.497 409.281 188.608L382.252 157.489L370.16 169.048V188.252C370.16 188.786 369.982 189.142 369.805 189.497C369.449 189.853 369.093 190.031 368.738 190.031H353.445C352.912 190.031 352.556 189.853 352.378 189.497C352.022 189.142 352.022 188.786 352.022 188.252V109.478C352.022 108.944 352.2 108.589 352.378 108.233C352.734 107.878 353.089 107.7 353.445 107.7H368.738C369.271 107.7 369.627 107.878 369.805 108.233C370.16 108.589 370.16 108.944 370.16 109.478V145.753H370.516C371.938 144.153 373.539 142.375 375.673 140.419L407.503 109.3C408.569 108.233 409.636 107.878 411.059 107.878H430.441C431.33 107.878 431.686 108.233 431.686 108.767C431.686 109.122 431.33 109.656 430.619 110.367Z" fill="#163535"/>
<path d="M509.039 155.89L465.295 156.245V174.916H513.484C513.84 174.916 514.196 175.094 514.729 175.628C515.263 176.161 515.44 176.517 515.44 176.872V188.609C515.44 189.142 515.263 189.498 514.907 189.853C514.551 190.209 514.196 190.387 513.662 190.387H448.402C447.869 190.387 447.513 190.209 447.335 190.031C446.979 189.675 446.979 189.32 446.979 188.786V109.656C446.979 109.123 447.157 108.767 447.335 108.411C447.691 108.056 448.046 107.878 448.402 107.878H512.773C513.129 107.878 513.484 108.056 514.018 108.589C514.551 109.123 514.729 109.478 514.729 109.834V121.57C514.729 122.104 514.551 122.459 514.196 122.815C513.662 123.348 513.307 123.526 512.951 123.526H465.651V140.241H508.861C509.217 140.241 509.572 140.419 510.106 140.953C510.639 141.486 510.817 141.842 510.817 142.197V153.933C510.817 154.467 510.639 154.823 510.284 155.178C509.75 155.534 509.395 155.89 509.039 155.89Z" fill="#163535"/>
</svg>
