<svg width="440" height="165" viewBox="0 0 440 165" fill="none" xmlns="http://www.w3.org/2000/svg">
<path opacity="0.62" d="M73.0387 69.4083V37.2352C73.0387 17.8099 57.2557 2.02686 37.8304 2.02686H5.65727C3.98791 2.02686 2.62207 3.3927 2.62207 5.06206V37.2352C2.62207 56.6605 18.4051 72.2918 37.8304 72.2918H70.0035C71.6729 72.2918 73.0387 70.9259 73.0387 69.4083Z" fill="#163535"/>
<path d="M164.094 162.741H98.2305C96.5611 162.741 95.1953 161.375 95.1953 159.705V126.774C95.1953 106.893 111.282 90.8064 131.162 90.8064C151.043 90.8064 167.13 106.893 167.13 126.774V159.705C167.13 161.375 165.764 162.741 164.094 162.741Z" fill="#D5A188"/>
<path d="M37.8302 164.562C17.0391 164.562 0.0419922 147.565 0.0419922 126.774C0.0419922 105.982 17.0391 88.9854 37.8302 88.9854C58.6214 88.9854 75.6185 105.982 75.6185 126.774C75.6185 147.565 58.6214 164.562 37.8302 164.562Z" fill="#CF7651"/>
<path d="M37.8302 164.562C17.0391 164.562 0.0419922 147.565 0.0419922 126.774C0.0419922 105.982 17.0391 88.9854 37.8302 88.9854C58.6214 88.9854 75.6185 105.982 75.6185 126.774C75.6185 147.565 58.6214 164.562 37.8302 164.562Z" fill="#CF7651"/>
<path d="M123.12 15.685H98.6865C98.383 15.685 98.0795 15.5332 97.6242 15.0779C97.3207 14.7744 97.1689 14.3191 97.1689 14.0156V3.99944C97.1689 3.69592 97.3207 3.3924 97.776 2.93712C98.2313 2.48184 98.5348 2.33008 98.8383 2.33008H163.792C164.095 2.33008 164.399 2.48184 164.854 2.93712C165.309 3.3924 165.461 3.69592 165.461 3.99944V14.0156C165.461 14.3191 165.309 14.6226 164.854 15.0779C164.399 15.5332 164.095 15.685 163.792 15.685H138.903V71.0774C138.903 71.5327 138.751 71.8362 138.448 72.1397C138.144 72.4432 137.841 72.4432 137.385 72.4432H124.638C124.182 72.4432 123.879 72.2915 123.575 72.1397C123.272 71.8362 123.12 71.5327 123.12 71.0774V15.685Z" fill="#163535"/>
<path d="M216.301 70.9259L211.141 60.3027H178.057L173.201 70.9259C172.746 71.9883 171.987 72.4435 170.773 72.4435H157.266C156.659 72.4435 156.355 72.14 156.355 71.6847C156.355 71.2295 156.507 70.7742 156.811 70.3189L188.832 2.48218H200.669L232.691 70.3189C232.994 70.926 233.146 71.3812 233.146 71.6847C233.146 72.2918 232.843 72.4435 232.235 72.4435H218.729C217.515 72.4435 216.756 71.9883 216.301 70.9259ZM189.743 34.9588L183.521 47.8584H205.981L199.911 34.9588C199.455 33.7447 198.697 32.0754 197.786 29.6472C197.634 29.0402 197.331 28.4331 197.179 27.8261C197.027 27.2191 196.724 26.612 196.572 25.8532C196.42 25.2462 196.268 24.7909 196.117 24.4874L195.51 22.5145H194.903C192.93 27.3708 191.26 31.6201 189.743 34.9588Z" fill="#163535"/>
<path d="M241.038 48.9208L251.964 48.769C253.33 48.769 254.089 49.3761 254.241 50.5901C255.607 57.1158 261.222 60.3028 271.238 60.3028C276.549 60.3028 280.495 59.3922 283.075 57.5711C285.807 55.75 287.021 53.6253 287.021 50.8937C287.021 46.7961 283.986 44.5197 277.915 44.0645L260.008 42.5469C253.027 41.9398 247.715 40.1187 244.073 36.9317C240.431 33.7448 238.609 29.6472 238.609 24.3356C238.609 17.9617 241.341 12.4984 246.653 7.7938C252.116 3.241 259.552 0.9646 269.113 0.9646C279.129 0.9646 286.566 2.93748 291.574 6.88324C296.582 10.829 299.162 15.8371 299.162 21.9075C299.162 23.2733 298.403 23.8804 297.037 23.8804H285.655C284.441 23.8804 283.834 23.2733 283.53 22.0592C282.62 16.7476 277.763 14.016 268.961 14.016C264.257 14.016 260.615 14.9265 258.035 16.5959C255.303 18.417 254.089 20.5416 254.089 23.2733C254.089 26.7638 256.821 28.7367 262.436 29.192L280.192 30.7096C287.78 31.4684 293.395 33.4412 297.189 37.0835C300.831 40.574 302.652 44.975 302.652 50.1349C302.652 56.357 299.92 61.6686 294.609 66.3732C289.297 70.926 281.557 73.2024 271.238 73.2024C261.07 73.2024 253.178 71.0777 247.411 66.9802C241.645 62.7309 238.761 57.5711 238.761 51.5007V50.5901C238.761 49.9831 239.065 49.5278 239.52 49.2243C239.975 49.0725 240.431 48.9208 241.038 48.9208Z" fill="#163535"/>
<path d="M331.487 15.685H307.053C306.75 15.685 306.446 15.5332 305.991 15.0779C305.536 14.6226 305.384 14.3191 305.384 14.0156V3.99944C305.384 3.69592 305.536 3.3924 305.991 2.93712C306.446 2.48184 306.75 2.33008 307.053 2.33008H371.399C371.703 2.33008 372.006 2.48184 372.462 2.93712C372.917 3.3924 373.069 3.69592 373.069 3.99944V14.0156C373.069 14.3191 372.917 14.6226 372.462 15.0779C372.006 15.5332 371.703 15.685 371.399 15.685H347.27V71.0774C347.27 71.5327 347.118 71.8362 346.814 72.1397C346.511 72.4432 346.207 72.4432 345.752 72.4432H333.004C332.549 72.4432 332.245 72.2915 331.942 72.1397C331.638 71.8362 331.487 71.5327 331.487 71.0774V15.685Z" fill="#163535"/>
<path d="M434.229 43.3053L396.896 43.4571V59.3919H438.023C438.326 59.3919 438.63 59.5436 439.085 59.9989C439.54 60.4542 439.692 60.7577 439.692 61.0612V71.0774C439.692 71.5327 439.54 71.8362 439.237 72.1397C438.933 72.4432 438.63 72.595 438.175 72.595H382.479C382.023 72.595 381.72 72.4432 381.568 72.2915C381.265 71.9879 381.265 71.6844 381.265 71.2291V3.84768C381.265 3.3924 381.416 3.08888 381.568 2.78536C381.872 2.48184 382.175 2.33008 382.479 2.33008H437.416C437.719 2.33008 438.023 2.48184 438.478 2.93712C438.933 3.3924 439.085 3.69592 439.085 3.99944V14.0156C439.085 14.4709 438.933 14.7744 438.63 15.0779C438.175 15.5332 437.871 15.685 437.568 15.685H397.199V29.9504H434.077C434.381 29.9504 434.684 30.1022 435.139 30.5574C435.595 31.0127 435.747 31.3162 435.747 31.6198V41.6359C435.747 42.0912 435.595 42.3947 435.291 42.6982C434.836 43.0018 434.532 43.3053 434.229 43.3053Z" fill="#163535"/>
<path d="M215.845 93.8418V149.386H250.446C250.75 149.386 251.053 149.538 251.508 149.993C251.964 150.448 252.115 150.752 252.115 151.055V161.072C252.115 161.527 251.964 161.83 251.66 162.134C251.357 162.437 251.053 162.589 250.598 162.589H201.579C201.124 162.589 200.821 162.437 200.669 162.286C200.365 161.83 200.365 161.527 200.365 161.223V93.8418C200.365 93.5383 200.517 93.2348 200.669 92.7795C200.972 92.476 201.276 92.3242 201.579 92.3242H214.631C215.086 92.3242 215.389 92.476 215.541 92.7795C215.693 93.2348 215.845 93.5383 215.845 93.8418Z" fill="#163535"/>
<path d="M280.951 93.8416V161.071C280.951 161.375 280.799 161.678 280.648 162.134C280.496 162.437 280.192 162.437 279.737 162.437H266.686C266.23 162.437 265.927 162.285 265.775 162.134C265.472 161.678 265.472 161.375 265.472 161.071V93.8416C265.472 93.5381 265.623 93.2345 265.775 92.7793C266.079 92.4757 266.382 92.324 266.686 92.324H279.737C280.192 92.324 280.496 92.4757 280.648 92.7793C280.799 93.2345 280.951 93.5381 280.951 93.8416Z" fill="#163535"/>
<path d="M367.302 94.6004L336.95 124.042L368.819 160.616C369.274 161.071 369.426 161.375 369.426 161.678C369.426 162.285 369.123 162.437 368.364 162.437H351.519C350.456 162.437 349.546 162.134 349.09 161.375L326.023 134.817L315.703 144.681V161.071C315.703 161.527 315.551 161.83 315.4 162.134C315.096 162.437 314.793 162.589 314.489 162.589H301.438C300.982 162.589 300.679 162.437 300.527 162.134C300.224 161.83 300.224 161.527 300.224 161.071V93.8416C300.224 93.3863 300.375 93.0828 300.527 92.7793C300.831 92.4757 301.134 92.324 301.438 92.324H314.489C314.944 92.324 315.248 92.4757 315.4 92.7793C315.703 93.0828 315.703 93.3863 315.703 93.8416V124.801H316.007C317.221 123.435 318.587 121.917 320.408 120.248L347.573 93.6898C348.483 92.7793 349.394 92.4757 350.608 92.4757H367.15C367.909 92.4757 368.212 92.7793 368.212 93.2345C368.212 93.5381 367.909 93.9933 367.302 94.6004Z" fill="#163535"/>
<path d="M434.228 133.451L396.895 133.755V149.69H438.022C438.325 149.69 438.629 149.841 439.084 150.297C439.54 150.752 439.691 151.055 439.691 151.359V161.375C439.691 161.83 439.54 162.134 439.236 162.437C438.932 162.741 438.629 162.893 438.174 162.893H382.478C382.022 162.893 381.719 162.741 381.567 162.589C381.264 162.286 381.264 161.982 381.264 161.527V93.9937C381.264 93.5384 381.415 93.2349 381.567 92.9314C381.871 92.6278 382.174 92.4761 382.478 92.4761H437.415C437.718 92.4761 438.022 92.6278 438.477 93.0831C438.932 93.5384 439.084 93.8419 439.084 94.1454V104.162C439.084 104.617 438.932 104.92 438.629 105.224C438.174 105.679 437.87 105.831 437.567 105.831H397.198V120.096H434.076C434.38 120.096 434.683 120.248 435.139 120.703C435.594 121.159 435.746 121.462 435.746 121.766V131.782C435.746 132.237 435.594 132.541 435.29 132.844C434.835 133.148 434.531 133.451 434.228 133.451Z" fill="#163535"/>
</svg>
